<svg width="18" height="20" viewBox="0 0 18 20" fill="none" xmlns="http://www.w3.org/2000/svg">
<g clip-path="url(#clip0_285_75)">
<path d="M13.6606 11.0788C13.6448 11.1707 13.6313 11.2493 13.6178 11.3278C13.5183 11.9046 13.3581 12.4641 13.0891 12.9916C12.7036 13.7473 12.1491 14.3538 11.3675 14.757C10.8944 15.0012 10.3867 15.1432 9.85552 15.2102C9.38358 15.2698 8.91073 15.2761 8.43829 15.2126C7.65904 15.1079 6.94337 14.8529 6.32925 14.3731C5.63957 13.8341 5.24056 13.1398 5.14387 12.2915C5.08081 11.7382 5.14824 11.2009 5.37878 10.6868C5.63673 10.1115 6.05129 9.6603 6.58944 9.30969C7.13764 8.95268 7.74678 8.73905 8.39401 8.61672C9.03209 8.49603 9.67789 8.48487 10.325 8.49467C10.8028 8.50195 11.2777 8.54104 11.7498 8.61274C11.7796 8.6173 11.81 8.61895 11.8473 8.62263C11.8488 8.60284 11.8541 8.58431 11.8509 8.56724C11.776 8.15968 11.6487 7.77017 11.4169 7.41645C11.1263 6.97319 10.7092 6.68855 10.1875 6.55108C9.50667 6.37171 8.82268 6.3685 8.14611 6.57689C7.63385 6.73473 7.22163 7.02752 6.90894 7.44682C6.89523 7.46515 6.88091 7.4832 6.86669 7.50115C6.86476 7.50367 6.86141 7.50512 6.84628 7.51589C6.35352 7.19672 5.85995 6.87007 5.35491 6.53973C5.37796 6.50529 5.39777 6.47309 5.42011 6.44262C5.97136 5.69231 6.70278 5.17348 7.61466 4.88836C8.23365 4.69481 8.87001 4.63447 9.51804 4.66823C9.98328 4.69248 10.4391 4.76505 10.8811 4.90883C11.8917 5.23751 12.6349 5.86131 13.1228 6.76539C13.4257 7.32652 13.5937 7.92665 13.6785 8.54968C13.7025 8.72586 13.7165 8.9033 13.7352 9.08015C13.7375 9.10237 13.7408 9.12459 13.7432 9.14312C13.9323 9.23305 14.1192 9.31648 14.3007 9.40932C15.0264 9.78079 15.6517 10.2669 16.1479 10.8986C16.601 11.4753 16.8832 12.1234 17.0287 12.8283C17.1222 13.2812 17.1547 13.7385 17.124 14.1987C17.0516 15.2834 16.6767 16.266 15.9841 17.127C15.0148 18.3319 13.7647 19.1586 12.2392 19.5999C11.5886 19.7881 10.923 19.8974 10.2463 19.9495C9.81104 19.9831 9.37536 20.0096 8.93825 19.997C7.98422 19.9694 7.04299 19.859 6.1242 19.6017C4.44963 19.1325 3.0717 18.251 2.02515 16.9096C1.47877 16.2093 1.0696 15.4395 0.762593 14.6187C0.475897 13.8522 0.287001 13.0631 0.167164 12.258C0.0674343 11.5882 0.016148 10.9151 0.00253929 10.2388C-0.01046 9.59132 0.023257 8.94588 0.0933314 8.30249C0.197529 7.34515 0.390894 6.40517 0.719838 5.49324C1.07123 4.51922 1.56165 3.61737 2.24573 2.81642C3.18219 1.71996 4.36077 0.959176 5.75972 0.504664C6.48717 0.26824 7.23565 0.127278 7.99966 0.0562632C8.61063 -0.000490189 9.2219 -0.0164006 9.835 0.0188157C10.9886 0.0850765 12.1099 0.290165 13.179 0.720618C14.6254 1.30299 15.7828 2.22259 16.6656 3.45982C17.2837 4.32596 17.7086 5.27573 17.999 6.28323C18.0007 6.28905 17.9992 6.29574 17.9992 6.3166C17.4217 6.4662 16.8394 6.61414 16.2501 6.76238C16.2168 6.65722 16.1874 6.56176 16.1563 6.46678C15.9333 5.78487 15.6368 5.13526 15.2254 4.53619C14.5287 3.52162 13.5894 2.78887 12.4154 2.32921C11.7695 2.0763 11.0967 1.9235 10.4051 1.84075C9.76503 1.7642 9.12329 1.74373 8.47993 1.78758C7.5522 1.85084 6.65078 2.02381 5.79526 2.385C4.72871 2.83534 3.87959 3.52899 3.24242 4.46081C2.76571 5.15796 2.4457 5.91991 2.22339 6.72164C2.07938 7.24095 1.98158 7.76862 1.91557 8.3021C1.82559 9.02912 1.79116 9.75848 1.8194 10.4899C1.8586 11.504 1.98839 12.5059 2.28402 13.4839C2.50115 14.202 2.80196 14.8846 3.2281 15.5143C3.96815 16.608 4.98869 17.3595 6.27045 17.7917C7.06513 18.0596 7.88775 18.1842 8.72732 18.2213C9.23571 18.2438 9.74269 18.2273 10.2484 18.1795C11.1418 18.095 12.0028 17.8982 12.7967 17.4822C13.4575 17.1359 14.0286 16.6851 14.4956 16.1189C14.9391 15.5812 15.2114 14.971 15.2961 14.2904C15.3804 13.6134 15.2841 12.9609 14.9568 12.349C14.7013 11.8713 14.3177 11.5023 13.8583 11.2015C13.7974 11.1616 13.7344 11.1246 13.6604 11.0788H13.6606ZM11.9114 10.4468C11.8777 10.4368 11.8529 10.4272 11.8271 10.4222C11.5021 10.3581 11.1738 10.3141 10.8432 10.2875C10.3804 10.2502 9.91686 10.2476 9.45315 10.2689C9.14858 10.2828 8.84614 10.3161 8.54909 10.3842C8.18399 10.4679 7.83758 10.594 7.53778 10.8164C7.18355 11.0791 6.96449 11.4178 6.93646 11.8515C6.90569 12.3281 7.0957 12.7158 7.48426 13.0138C7.77035 13.2331 8.10284 13.3561 8.45809 13.4279C8.89438 13.516 9.3325 13.5101 9.77001 13.4399C10.1669 13.3762 10.5318 13.2391 10.8457 12.9917C11.142 12.7583 11.3505 12.4633 11.5067 12.1318C11.6861 11.7514 11.786 11.3499 11.8488 10.9391C11.8736 10.7767 11.8903 10.6132 11.9112 10.4468H11.9114Z" fill="#FBFBFB"/>
</g>
<defs>
<clipPath id="clip0_285_75">
<rect width="18" height="20" fill="white"/>
</clipPath>
</defs>
</svg>
