<svg width="11" height="19" viewBox="0 0 11 19" fill="none" xmlns="http://www.w3.org/2000/svg">
<rect width="11" height="19" fill="#F5F5F5"/>
<g clip-path="url(#clip0_0_1)">
<rect width="1440" height="1394" transform="translate(-755 -1336)" fill="white"/>
<rect width="1440" height="176" transform="translate(-755 -118)" fill="#2A9D8F"/>
<path d="M7.059 19H3.28299C3.27513 18.8453 3.25943 18.7047 3.25943 18.564C3.25943 16.6936 3.25943 14.8161 3.25943 12.9456C3.25943 12.1791 3.25943 11.4056 3.25943 10.6392C3.25943 10.5477 3.24373 10.4493 3.23588 10.3227C2.16039 10.2805 1.10059 10.3227 0.00939021 10.2876C-0.00631048 9.17654 -0.00631048 8.10067 0.0407916 6.99667C0.197799 6.98964 0.315554 6.97557 0.441159 6.97557C1.22619 6.97557 2.01123 6.97557 2.78841 6.97557C2.93757 6.97557 3.07888 6.95448 3.27514 6.94041C3.27514 6.79275 3.27514 6.67321 3.27514 6.54663C3.27514 5.86454 3.27514 5.18246 3.27514 4.50037C3.27514 3.82531 3.36934 3.15729 3.6441 2.52443C4.24073 1.13916 5.37118 0.34456 6.9648 0.0843819C7.49077 0 8.03245 0 8.56627 0C9.35915 0.00703183 10.152 0.0632865 10.9214 0.0984456C11.0234 0.379719 11.0234 2.72835 10.9371 3.07994C10.8507 3.07994 10.7565 3.094 10.6623 3.094C10.1285 3.094 9.58681 3.08697 9.05299 3.094C8.77823 3.094 8.49562 3.12213 8.22085 3.17135C7.63993 3.28386 7.27881 3.61436 7.16891 4.14175C7.12966 4.33161 7.1061 4.52147 7.1061 4.71132C7.1061 5.35825 7.1061 5.99815 7.1061 6.64508C7.1061 6.96854 7.1061 6.97557 7.49077 6.97557C8.44851 6.97557 9.39841 6.9826 10.3561 6.98964C10.4975 6.98964 10.6309 6.98964 10.8193 6.98964C10.6859 8.11473 10.5132 9.19763 10.3483 10.3157H7.13751C7.12181 10.4634 7.1061 10.5829 7.1061 10.7024C7.09825 11.9822 7.0904 13.255 7.08255 14.5348C7.08255 15.8919 7.0747 17.242 7.06685 18.5992C7.06685 18.7258 7.06685 18.8453 7.06685 19H7.059Z" fill="#FFFAF3"/>
</g>
<defs>
<clipPath id="clip0_0_1">
<rect width="1440" height="1394" fill="white" transform="translate(-755 -1336)"/>
</clipPath>
</defs>
</svg>
